<svg width="800" height="500" xmlns="http://www.w3.org/2000/svg">
  <defs>
    <linearGradient id="bg-grad4" x1="0%" y1="0%" x2="100%" y2="100%">
      <stop offset="0%" style="stop-color:#F8F9FA;stop-opacity:1" />
      <stop offset="100%" style="stop-color:#E9ECEF;stop-opacity:1" />
    </linearGradient>
    <linearGradient id="laptop-grad" x1="0%" y1="0%" x2="100%" y2="100%">
      <stop offset="0%" style="stop-color:#C0C0C0;stop-opacity:1" />
      <stop offset="100%" style="stop-color:#808080;stop-opacity:1" />
    </linearGradient>
    <linearGradient id="phone-grad" x1="0%" y1="0%" x2="100%" y2="100%">
      <stop offset="0%" style="stop-color:#2C3E50;stop-opacity:1" />
      <stop offset="100%" style="stop-color:#1A252F;stop-opacity:1" />
    </linearGradient>
    <radialGradient id="screen-glow">
      <stop offset="0%" style="stop-color:#4A90E2;stop-opacity:1" />
      <stop offset="100%" style="stop-color:#2E5C8A;stop-opacity:1" />
    </radialGradient>
  </defs>
  <rect width="800" height="500" fill="url(#bg-grad4)"/>
  
  <!-- Laptop -->
  <rect x="140" y="250" width="200" height="130" rx="8" fill="url(#laptop-grad)" stroke="#606060" stroke-width="2"/>
  <rect x="150" y="260" width="180" height="100" rx="3" fill="url(#screen-glow)"/>
  <ellipse cx="240" cy="340" rx="8" ry="3" fill="#505050"/>
  <path d="M 120 380 L 360 380 L 350 390 L 130 390 Z" fill="#909090" stroke="#606060" stroke-width="2"/>
  <ellipse cx="240" cy="395" rx="120" ry="8" fill="#000" opacity="0.2"/>
  
  <!-- Smartphone -->
  <rect x="480" y="180" width="110" height="210" rx="12" fill="url(#phone-grad)" stroke="#0D1821" stroke-width="3"/>
  <rect x="490" y="210" width="90" height="160" rx="3" fill="url(#screen-glow)"/>
  <circle cx="535" cy="195" r="4" fill="#1A252F"/>
  <rect x="515" y="378" width="40" height="6" rx="3" fill="#1A252F"/>
  <ellipse cx="535" cy="395" rx="60" ry="8" fill="#000" opacity="0.15"/>
  
  <!-- Label -->
  <rect x="280" y="430" width="240" height="50" rx="8" fill="#2C3E50" opacity="0.9"/>
  <text x="400" y="463" font-family="Arial, sans-serif" font-size="28" fill="#FFF" text-anchor="middle" font-weight="bold">ÉLECTRONIQUE</text>
</svg>
