<svg width="400" height="400" xmlns="http://www.w3.org/2000/svg">
  <defs>
    <linearGradient id="sweater-grad" x1="0%" y1="0%" x2="100%" y2="100%">
      <stop offset="0%" style="stop-color:#C41E3A;stop-opacity:1" />
      <stop offset="100%" style="stop-color:#8B1428;stop-opacity:1" />
    </linearGradient>
  </defs>
  <rect width="400" height="400" fill="#F5F5F5"/>
  <path d="M 135 135 L 115 160 L 115 310 L 285 310 L 285 160 L 265 135 L 245 150 L 225 140 Q 200 130 200 130 Q 200 130 175 140 L 155 150 Z"
        fill="url(#sweater-grad)" stroke="#6B0F1A" stroke-width="2"/>
  <rect x="115" y="290" width="170" height="8" fill="#8B1428"/>
  <rect x="115" y="302" width="170" height="8" fill="#8B1428"/>
  <ellipse cx="200" cy="145" rx="25" ry="18" fill="#8B1428"/>
  <path d="M 150 180 Q 160 190 150 200 Q 160 210 150 220" stroke="#8B1428" stroke-width="3" fill="none"/>
  <path d="M 180 180 Q 190 190 180 200 Q 190 210 180 220" stroke="#8B1428" stroke-width="3" fill="none"/>
  <path d="M 210 180 Q 220 190 210 200 Q 220 210 210 220" stroke="#8B1428" stroke-width="3" fill="none"/>
  <path d="M 240 180 Q 250 190 240 200 Q 250 210 240 220" stroke="#8B1428" stroke-width="3" fill="none"/>
  <ellipse cx="200" cy="320" rx="85" ry="10" fill="#000" opacity="0.1"/>
</svg>
