<svg width="400" height="400" xmlns="http://www.w3.org/2000/svg">
  <defs>
    <linearGradient id="sneaker-grad" x1="0%" y1="0%" x2="100%" y2="100%">
      <stop offset="0%" style="stop-color:#FFFFFF;stop-opacity:1" />
      <stop offset="100%" style="stop-color:#E0E0E0;stop-opacity:1" />
    </linearGradient>
  </defs>
  <rect width="400" height="400" fill="#F5F5F5"/>
  <ellipse cx="200" cy="280" rx="120" ry="30" fill="#2C3E50"/>
  <ellipse cx="200" cy="275" rx="110" ry="25" fill="#34495E"/>
  <path d="M 100 270 Q 90 220 130 200 L 250 200 Q 300 220 300 270 L 300 280 Q 300 290 290 290 L 110 290 Q 100 290 100 280 Z"
        fill="url(#sneaker-grad)" stroke="#BDC3C7" stroke-width="2"/>
  <path d="M 120 240 Q 180 230 240 250" stroke="#FF6B35" stroke-width="8" fill="none" stroke-linecap="round"/>
  <ellipse cx="160" cy="220" rx="6" ry="6" fill="#34495E"/>
  <ellipse cx="180" cy="215" rx="6" ry="6" fill="#34495E"/>
  <ellipse cx="200" cy="213" rx="6" ry="6" fill="#34495E"/>
  <ellipse cx="220" cy="215" rx="6" ry="6" fill="#34495E"/>
  <ellipse cx="240" cy="220" rx="6" ry="6" fill="#34495E"/>
  <path d="M 280 245 L 290 255" stroke="#BDC3C7" stroke-width="2"/>
  <path d="M 280 255 L 290 265" stroke="#BDC3C7" stroke-width="2"/>
  <ellipse cx="200" cy="300" rx="120" ry="15" fill="#000" opacity="0.15"/>
</svg>
