<svg width="600" height="400" xmlns="http://www.w3.org/2000/svg">
  <defs>
    <linearGradient id="bg-trend4" x1="0%" y1="0%" x2="100%" y2="100%">
      <stop offset="0%" style="stop-color:#F5F5F5;stop-opacity:1" />
      <stop offset="100%" style="stop-color:#E0E0E0;stop-opacity:1" />
    </linearGradient>
    <linearGradient id="headphone-trend" x1="0%" y1="0%" x2="100%" y2="100%">
      <stop offset="0%" style="stop-color:#2C3E50;stop-opacity:1" />
      <stop offset="100%" style="stop-color:#1A252F;stop-opacity:1" />
    </linearGradient>
    <radialGradient id="speaker-trend">
      <stop offset="0%" style="stop-color:#34495E;stop-opacity:1" />
      <stop offset="100%" style="stop-color:#1A252F;stop-opacity:1" />
    </radialGradient>
  </defs>
  <rect width="600" height="400" fill="url(#bg-trend4)"/>
  
  <!-- Premium Headphones -->
  <path d="M 300 100 Q 200 100 180 200 L 180 240 L 220 240 L 220 200 Q 235 130 300 130 Q 365 130 380 200 L 380 240 L 420 240 L 420 200 Q 400 100 300 100" 
        fill="url(#headphone-trend)" stroke="#0D1821" stroke-width="3"/>
  <rect x="170" y="220" width="60" height="80" rx="30" fill="url(#headphone-trend)" stroke="#0D1821" stroke-width="3"/>
  <ellipse cx="200" cy="260" rx="22" ry="28" fill="url(#speaker-trend)"/>
  <circle cx="200" cy="260" r="12" fill="#1A252F"/>
  <rect x="370" y="220" width="60" height="80" rx="30" fill="url(#headphone-trend)" stroke="#0D1821" stroke-width="3"/>
  <ellipse cx="400" cy="260" rx="22" ry="28" fill="url(#speaker-trend)"/>
  <circle cx="400" cy="260" r="12" fill="#1A252F"/>
  <rect x="285" y="105" width="30" height="15" rx="3" fill="#E74C3C"/>
  <ellipse cx="300" cy="310" rx="130" ry="12" fill="#000" opacity="0.2"/>
</svg>
