<svg width="400" height="400" xmlns="http://www.w3.org/2000/svg">
  <defs>
    <linearGradient id="formal-grad" x1="0%" y1="0%" x2="100%" y2="100%">
      <stop offset="0%" style="stop-color:#1A1A1A;stop-opacity:1" />
      <stop offset="100%" style="stop-color:#000000;stop-opacity:1" />
    </linearGradient>
    <radialGradient id="formal-shine">
      <stop offset="0%" style="stop-color:#FFFFFF;stop-opacity:0.4" />
      <stop offset="100%" style="stop-color:#FFFFFF;stop-opacity:0" />
    </radialGradient>
  </defs>
  <rect width="400" height="400" fill="#F5F5F5"/>
  <ellipse cx="200" cy="280" rx="100" ry="25" fill="#0D0D0D"/>
  <path d="M 110 270 Q 100 230 140 210 L 240 210 Q 290 230 290 270 L 290 280 Q 290 290 280 290 L 120 290 Q 110 290 110 280 Z"
        fill="url(#formal-grad)" stroke="#000" stroke-width="2"/>
  <ellipse cx="180" cy="240" rx="40" ry="30" fill="url(#formal-shine)"/>
  <rect x="160" y="220" width="60" height="15" fill="#000" opacity="0.5" rx="3"/>
  <path d="M 170 225 L 180 230 L 190 225 L 200 230 L 210 225" stroke="#2C2C2C" stroke-width="2" fill="none"/>
  <ellipse cx="120" cy="275" rx="15" ry="12" fill="#000" opacity="0.3"/>
  <ellipse cx="200" cy="300" rx="100" ry="15" fill="#000" opacity="0.2"/>
</svg>
