<svg width="400" height="400" xmlns="http://www.w3.org/2000/svg">
  <defs>
    <linearGradient id="boot-grad" x1="0%" y1="0%" x2="100%" y2="100%">
      <stop offset="0%" style="stop-color:#654321;stop-opacity:1" />
      <stop offset="100%" style="stop-color:#3E2723;stop-opacity:1" />
    </linearGradient>
  </defs>
  <rect width="400" height="400" fill="#F5F5F5"/>
  <path d="M 130 100 L 125 260 Q 125 280 140 280 L 260 280 Q 275 280 275 260 L 270 100 Q 270 90 260 90 L 140 90 Q 130 90 130 100 Z"
        fill="url(#boot-grad)" stroke="#2C1810" stroke-width="2"/>
  <rect x="125" y="280" width="150" height="35" rx="8" fill="#1A1A1A"/>
  <rect x="130" y="285" width="140" height="5" fill="#3E2723"/>
  <line x1="150" y1="120" x2="250" y2="120" stroke="#8B4513" stroke-width="3"/>
  <line x1="150" y1="150" x2="250" y2="150" stroke="#8B4513" stroke-width="3"/>
  <line x1="150" y1="180" x2="250" y2="180" stroke="#8B4513" stroke-width="3"/>
  <line x1="150" y1="210" x2="250" y2="210" stroke="#8B4513" stroke-width="3"/>
  <line x1="150" y1="240" x2="250" y2="240" stroke="#8B4513" stroke-width="3"/>
  <circle cx="150" cy="120" r="5" fill="#C0C0C0"/>
  <circle cx="250" cy="120" r="5" fill="#C0C0C0"/>
  <circle cx="150" cy="150" r="5" fill="#C0C0C0"/>
  <circle cx="250" cy="150" r="5" fill="#C0C0C0"/>
  <circle cx="150" cy="180" r="5" fill="#C0C0C0"/>
  <circle cx="250" cy="180" r="5" fill="#C0C0C0"/>
  <path d="M 140 90 L 140 280" stroke="#8B4513" stroke-width="1" stroke-dasharray="5,3"/>
  <path d="M 260 90 L 260 280" stroke="#8B4513" stroke-width="1" stroke-dasharray="5,3"/>
  <ellipse cx="200" cy="325" rx="75" ry="12" fill="#000" opacity="0.2"/>
</svg>
