<svg width="400" height="400" xmlns="http://www.w3.org/2000/svg">
  <defs>
    <linearGradient id="jacket-grad" x1="0%" y1="0%" x2="100%" y2="100%">
      <stop offset="0%" style="stop-color:#1C1C1C;stop-opacity:1" />
      <stop offset="100%" style="stop-color:#000000;stop-opacity:1" />
    </linearGradient>
  </defs>
  <rect width="400" height="400" fill="#F5F5F5"/>
  <path d="M 130 120 L 110 150 L 110 310 L 180 310 L 190 200 L 200 240 L 210 200 L 220 310 L 290 310 L 290 150 L 270 120 L 250 140 L 230 125 Q 200 110 200 110 Q 200 110 170 125 L 150 140 Z"
        fill="url(#jacket-grad)" stroke="#000" stroke-width="2"/>
  <path d="M 170 125 L 160 140 L 180 160 L 200 140 L 220 160 L 240 140 L 230 125" fill="#2C2C2C"/>
  <rect x="195" y="140" width="10" height="170" fill="#808080" rx="2"/>
  <circle cx="200" cy="150" r="4" fill="#C0C0C0"/>
  <circle cx="200" cy="180" r="4" fill="#C0C0C0"/>
  <circle cx="200" cy="210" r="4" fill="#C0C0C0"/>
  <circle cx="200" cy="240" r="4" fill="#C0C0C0"/>
  <circle cx="200" cy="270" r="4" fill="#C0C0C0"/>
  <rect x="120" y="200" width="50" height="40" fill="#000" opacity="0.3" rx="5"/>
  <rect x="230" y="200" width="50" height="40" fill="#000" opacity="0.3" rx="5"/>
  <ellipse cx="200" cy="320" rx="90" ry="10" fill="#000" opacity="0.1"/>
</svg>
