<svg width="800" height="500" xmlns="http://www.w3.org/2000/svg">
  <defs>
    <linearGradient id="bg-grad1" x1="0%" y1="0%" x2="100%" y2="100%">
      <stop offset="0%" style="stop-color:#F8F9FA;stop-opacity:1" />
      <stop offset="100%" style="stop-color:#E9ECEF;stop-opacity:1" />
    </linearGradient>
    <linearGradient id="shirt-grad1" x1="0%" y1="0%" x2="100%" y2="100%">
      <stop offset="0%" style="stop-color:#4A90E2;stop-opacity:1" />
      <stop offset="100%" style="stop-color:#2E5C8A;stop-opacity:1" />
    </linearGradient>
    <linearGradient id="jacket-grad1" x1="0%" y1="0%" x2="100%" y2="100%">
      <stop offset="0%" style="stop-color:#2C3E50;stop-opacity:1" />
      <stop offset="100%" style="stop-color:#1A252F;stop-opacity:1" />
    </linearGradient>
  </defs>
  <rect width="800" height="500" fill="url(#bg-grad1)"/>
  
  <!-- T-shirt -->
  <path d="M 140 180 L 120 200 L 120 340 L 280 340 L 280 200 L 260 180 L 240 195 L 230 185 Q 210 175 200 175 Q 190 175 170 185 L 160 195 Z" 
        fill="url(#shirt-grad1)" stroke="#1E3A5F" stroke-width="2"/>
  <rect x="140" y="200" width="120" height="8" rx="2" fill="#2E5C8A"/>
  <ellipse cx="200" cy="350" rx="70" ry="8" fill="#000" opacity="0.15"/>
  
  <!-- Jacket -->
  <path d="M 450 180 L 430 200 L 430 360 L 480 360 L 480 250 L 540 250 L 540 360 L 590 360 L 590 200 L 570 180 L 550 195 L 540 185 Q 520 175 510 175 Q 500 175 480 185 L 470 195 Z" 
        fill="url(#jacket-grad1)" stroke="#0D1821" stroke-width="2"/>
  <line x1="510" y1="200" x2="510" y2="360" stroke="#0D1821" stroke-width="3"/>
  <circle cx="525" cy="230" r="4" fill="#888"/>
  <circle cx="525" cy="250" r="4" fill="#888"/>
  <circle cx="525" cy="270" r="4" fill="#888"/>
  <ellipse cx="510" cy="370" rx="80" ry="10" fill="#000" opacity="0.15"/>
  
  <!-- Label -->
  <rect x="280" y="430" width="240" height="50" rx="8" fill="#2C3E50" opacity="0.9"/>
  <text x="400" y="463" font-family="Arial, sans-serif" font-size="28" fill="#FFF" text-anchor="middle" font-weight="bold">VÊTEMENTS</text>
</svg>
